<svg width="18" height="18" viewBox="0 0 18 18" fill="none" xmlns="http://www.w3.org/2000/svg">
<path d="M13.1667 0.666748H4.83335C2.53217 0.666748 0.666687 2.53223 0.666687 4.83341V13.1667C0.666687 15.4679 2.53217 17.3334 4.83335 17.3334H13.1667C15.4679 17.3334 17.3334 15.4679 17.3334 13.1667V4.83341C17.3334 2.53223 15.4679 0.666748 13.1667 0.666748Z" stroke="white" stroke-linecap="round" stroke-linejoin="round"/>
<path d="M12.3333 8.47501C12.4362 9.16855 12.3177 9.87685 11.9948 10.4992C11.6719 11.1215 11.1609 11.6262 10.5347 11.9414C9.9084 12.2566 9.19869 12.3663 8.50647 12.255C7.81425 12.1436 7.17478 11.8167 6.67901 11.321C6.18324 10.8252 5.85642 10.1857 5.74504 9.49352C5.63365 8.8013 5.74337 8.09159 6.05858 7.46532C6.3738 6.83905 6.87847 6.32812 7.5008 6.00521C8.12313 5.68229 8.83144 5.56383 9.52498 5.66667C10.2324 5.77158 10.8874 6.10123 11.3931 6.60693C11.8988 7.11263 12.2284 7.76757 12.3333 8.47501Z" stroke="white" stroke-linecap="round" stroke-linejoin="round"/>
<path d="M13.5833 4.41675H13.5916" stroke="white" stroke-linecap="round" stroke-linejoin="round"/>
</svg>
